<?xml version="1.0" encoding="iso-8859-1"?>
<!-- Generator: Adobe Illustrator 16.0.0, SVG Export Plug-In . SVG Version: 6.00 Build 0)  -->
<!DOCTYPE svg PUBLIC "-//W3C//DTD SVG 1.1//EN" "http://www.w3.org/Graphics/SVG/1.1/DTD/svg11.dtd">
<svg version="1.1" id="Layer_1" xmlns="http://www.w3.org/2000/svg" xmlns:xlink="http://www.w3.org/1999/xlink" x="0px" y="0px"
	 width="100px" height="100px" viewBox="0 0 100 100" style="enable-background:new 0 0 100 100;" xml:space="preserve">
<path d="M79,39c-0.186,0-0.37,0.021-0.553,0.062c0.016-0.144,0.031-0.288,0.047-0.431C78.743,36.385,79,34.063,79,32
	C79,16.607,66.533,5,50,5C33.467,5,21,16.607,21,32c0,0.558,0.021,1.137,0.053,1.726c-0.066,0.23-0.054,0.474,0.048,0.693
	c0.097,1.381,0.249,2.809,0.404,4.212c0.016,0.144,0.032,0.288,0.047,0.431C21.37,39.021,21.186,39,21,39c-0.409,0-4,0.196-4,7
	c0,1.044,0,2.123,1.03,6.242c0.224,0.897,0.4,1.869,0.571,2.809C19.221,58.467,19.862,62,23,62c0.542,0,1.237-0.27,1.842-0.754
	c0.627,2.051,1.354,4.027,2.17,5.932L28.948,87.5l-8.502,5.668c-0.459,0.307-0.583,0.928-0.277,1.387
	C20.361,94.844,20.678,95,21.001,95c0.19,0,0.383-0.055,0.554-0.168l9-6c0.306-0.204,0.476-0.561,0.441-0.927l-1.49-15.646
	c1.92,3.436,4.189,6.582,6.796,9.416C40.053,85.754,44.918,88,50,88s9.947-2.246,13.697-6.324c2.607-2.834,4.877-5.98,6.797-9.416
	l-1.49,15.646c-0.034,0.366,0.135,0.723,0.441,0.927l9,6C78.615,94.945,78.809,95,78.999,95c0.323,0,0.64-0.156,0.833-0.445
	c0.307-0.459,0.182-1.08-0.277-1.387L71.053,87.5l1.936-20.322c0.815-1.904,1.543-3.881,2.17-5.932C75.764,61.73,76.459,62,77,62
	c3.139,0,3.779-3.533,4.398-6.949c0.172-0.939,0.348-1.911,0.572-2.809C83,48.123,83,47.044,83,46C83,39.196,79.409,39,79,39z
	 M80.029,51.758c-0.24,0.96-0.422,1.965-0.598,2.937C78.85,57.899,78.366,60,77.014,60c-0.263-0.026-1.112-0.527-1.217-1.291
	c-0.063-0.473-0.451-0.834-0.928-0.863c-0.473-0.033-0.906,0.278-1.028,0.739c-2.282,8.526-6.189,15.84-11.614,21.737
	C58.857,83.983,54.516,86,50,86c-0.186,0-0.37-0.023-0.555-0.031l2.262-2.262c0.391-0.391,0.391-1.023,0-1.414s-1.023-0.391-1.414,0
	l-3,3c-0.116,0.116-0.187,0.256-0.233,0.402c-0.88-0.174-1.743-0.428-2.588-0.753l3.235-3.235c0.391-0.391,0.391-1.023,0-1.414
	s-1.023-0.391-1.414,0l-3.755,3.755c-0.679-0.368-1.345-0.771-1.985-1.239c0.051-0.034,0.108-0.057,0.154-0.102l3-3
	c0.391-0.391,0.391-1.023,0-1.414s-1.023-0.391-1.414,0l-3,3c-0.095,0.096-0.165,0.205-0.214,0.322
	c-0.449-0.405-0.885-0.836-1.305-1.293c-0.125-0.137-0.238-0.283-0.361-0.42c0.105-0.048,0.208-0.108,0.294-0.195l4-4
	c0.391-0.391,0.391-1.023,0-1.414s-1.023-0.391-1.414,0l-4,4c-0.052,0.052-0.079,0.116-0.117,0.176
	c-0.488-0.59-0.956-1.199-1.416-1.814l5.947-5.947c0.391-0.391,0.391-1.023,0-1.414s-1.023-0.391-1.414,0l-5.716,5.717
	c-0.46-0.674-0.915-1.354-1.344-2.055c0.173-0.042,0.34-0.113,0.475-0.248l6-6c0.391-0.391,0.391-1.023,0-1.414
	s-1.023-0.391-1.414,0l-6,6c-0.003,0.004-0.004,0.008-0.008,0.012c-0.381-0.68-0.746-1.373-1.099-2.077l7.521-7.521
	c0.391-0.391,0.391-1.023,0-1.414s-1.023-0.391-1.414,0l-7.028,7.028c-0.351-0.778-0.688-1.567-1.006-2.372
	c0.163-0.043,0.32-0.114,0.448-0.242l6-6c0.391-0.391,0.391-1.023,0-1.414s-1.023-0.391-1.414,0l-5.735,5.735
	c-0.277-0.783-0.541-1.577-0.788-2.384l5.937-5.938c0.391-0.391,0.391-1.023,0-1.414s-1.023-0.391-1.414,0l-5.183,5.184
	c-0.151-0.377-0.507-0.633-0.916-0.633c-0.021,0-0.042,0-0.063,0.002c-0.476,0.029-0.864,0.391-0.928,0.863
	C24.099,59.473,23.249,59.974,23,60c-1.366,0-1.85-2.101-2.431-5.306c-0.176-0.972-0.358-1.977-0.599-2.937
	C19,47.877,19,46.923,19,46c0-3.955,1.308-5,2-5c0.266,0,0.623,0.248,1.004,0.698c0.283,0.333,0.75,0.443,1.152,0.274
	c0.403-0.17,0.648-0.583,0.606-1.018c-0.038-0.396-0.084-0.8-0.127-1.2c0.022-0.019,0.05-0.026,0.071-0.047l8-8
	c0.391-0.391,0.391-1.023,0-1.414s-1.023-0.391-1.414,0l-6.929,6.929c-0.106-0.982-0.198-1.957-0.265-2.907l9.608-9.608
	c0.391-0.391,0.391-1.023,0-1.414s-1.023-0.391-1.414,0l-8.282,8.282c0.021-1.242,0.125-2.457,0.317-3.639
	c0.138-0.048,0.269-0.119,0.379-0.229l9-9c0.391-0.391,0.391-1.023,0-1.414s-1.023-0.391-1.414,0l-7.125,7.125
	C27.475,14.104,37.486,7,50,7c15.393,0,27,10.748,27,25c0,1.952-0.25,4.219-0.493,6.411c-0.095,0.852-0.188,1.705-0.27,2.543
	c-0.042,0.435,0.204,0.847,0.606,1.018c0.403,0.17,0.869,0.059,1.152-0.274C78.377,41.248,78.734,41,79,41c0.691,0,2,1.045,2,5
	C81,46.923,81,47.877,80.029,51.758z"/>
<path d="M24.707,44.707l3-3c0.391-0.391,0.391-1.023,0-1.414s-1.023-0.391-1.414,0l-3,3c-0.391,0.391-0.391,1.023,0,1.414
	C23.488,44.902,23.744,45,24,45S24.512,44.902,24.707,44.707z"/>
<path d="M27.293,45.293l-3,3c-0.391,0.391-0.391,1.023,0,1.414C24.488,49.902,24.744,50,25,50s0.512-0.098,0.707-0.293l3-3
	c0.391-0.391,0.391-1.023,0-1.414S27.684,44.902,27.293,45.293z"/>
<path d="M28.293,50.293l-4,4c-0.391,0.391-0.391,1.023,0,1.414C24.488,55.902,24.744,56,25,56s0.512-0.098,0.707-0.293l4-4
	c0.391-0.391,0.391-1.023,0-1.414S28.684,49.902,28.293,50.293z"/>
</svg>
