<?xml version="1.0" encoding="iso-8859-1"?>
<!-- Generator: Adobe Illustrator 16.0.0, SVG Export Plug-In . SVG Version: 6.00 Build 0)  -->
<!DOCTYPE svg PUBLIC "-//W3C//DTD SVG 1.1//EN" "http://www.w3.org/Graphics/SVG/1.1/DTD/svg11.dtd">
<svg version="1.1" id="Layer_1" xmlns="http://www.w3.org/2000/svg" xmlns:xlink="http://www.w3.org/1999/xlink" x="0px" y="0px"
	 width="100px" height="100px" viewBox="0 0 100 100" style="enable-background:new 0 0 100 100;" xml:space="preserve">
<path d="M94.707,21.293C94.328,20.914,85.273,12,73,12c-10.708,0-20.447,6.799-23,8.731C47.447,18.799,37.708,12,27,12
	c-12.273,0-21.328,8.914-21.707,9.293C5.105,21.48,5,21.735,5,22v59c0,0.404,0.244,0.769,0.617,0.924
	c0.373,0.153,0.803,0.07,1.09-0.217C6.794,81.621,15.572,73,27,73c1.876,0,3.85,0.242,5.883,0.705l-4.545,4.545
	C27.152,79.297,27,80.804,27,82c0,2.757,2.243,5,5,5c1.117,0,2.682-0.387,3.707-1.293l7.793-7.793
	c3.551,1.984,5.844,3.841,5.867,3.861C49.552,81.925,49.775,82,50,82s0.449-0.075,0.633-0.227C50.74,81.686,61.49,73,73,73
	c11.428,0,20.206,8.621,20.293,8.707c0.287,0.287,0.719,0.371,1.09,0.217C94.756,81.769,95,81.404,95,81V22
	C95,21.735,94.895,21.48,94.707,21.293z M34.339,84.25C33.861,84.67,32.834,85,32,85c-1.654,0-3-1.346-3-3
	c0-1.184,0.191-1.836,0.707-2.293l22.49-22.49c1.24,1.791,2.795,3.346,4.586,4.586L34.339,84.25z M51,47c0-8.822,7.178-16,16-16
	s16,7.178,16,16s-7.178,16-16,16S51,55.822,51,47z M93,78.777C89.78,76.138,82.318,71,73,71c-10.711,0-20.452,6.802-23.002,8.732
	c-0.884-0.664-2.648-1.922-5.029-3.287l13.568-13.568C61.062,64.229,63.941,65,67,65c9.926,0,18-8.074,18-18c0-9.925-8.074-18-18-18
	s-18,8.075-18,18c0,3.059,0.771,5.938,2.123,8.463L34.529,72.058C31.928,71.365,29.396,71,27,71c-9.318,0-16.78,5.138-20,7.777
	v-2.363l7.707-7.707c0.391-0.391,0.391-1.023,0-1.414s-1.023-0.391-1.414,0L7,73.586v-3.172l7.707-7.707
	c0.391-0.391,0.391-1.023,0-1.414s-1.023-0.391-1.414,0L7,67.586v-3.172l7.707-7.707c0.391-0.391,0.391-1.023,0-1.414
	s-1.023-0.391-1.414,0L7,61.586v-3.172l7.707-7.707c0.391-0.391,0.391-1.023,0-1.414s-1.023-0.391-1.414,0L7,55.586v-3.172
	l7.707-7.707c0.391-0.391,0.391-1.023,0-1.414s-1.023-0.391-1.414,0L7,49.586v-3.172l7.707-7.707c0.391-0.391,0.391-1.023,0-1.414
	s-1.023-0.391-1.414,0L7,43.586v-3.172l7.707-7.707c0.391-0.391,0.391-1.023,0-1.414s-1.023-0.391-1.414,0L7,37.586v-3.172
	l7.707-7.707c0.391-0.391,0.391-1.023,0-1.414s-1.023-0.391-1.414,0L7,31.586v-3.172l7.707-7.707c0.391-0.391,0.391-1.023,0-1.414
	s-1.023-0.391-1.414,0L7,25.586v-3.155C8.619,20.946,16.742,14,27,14c11.492,0,22.26,8.687,22.367,8.774
	c0.368,0.301,0.898,0.301,1.266,0C50.74,22.686,61.49,14,73,14c10.258,0,18.381,6.946,20,8.431V78.777z"/>
<path d="M57.293,19.293l-8,8c-0.391,0.391-0.391,1.023,0,1.414C49.488,28.902,49.744,29,50,29s0.512-0.098,0.707-0.293l8-8
	c0.391-0.391,0.391-1.023,0-1.414S57.684,18.902,57.293,19.293z"/>
<path d="M57.293,25.293l-8,8c-0.391,0.391-0.391,1.023,0,1.414C49.488,34.902,49.744,35,50,35s0.512-0.098,0.707-0.293l8-8
	c0.391-0.391,0.391-1.023,0-1.414S57.684,24.902,57.293,25.293z"/>
<path d="M57.293,67.293l-8,8c-0.391,0.391-0.391,1.023,0,1.414C49.488,76.902,49.744,77,50,77s0.512-0.098,0.707-0.293l8-8
	c0.391-0.391,0.391-1.023,0-1.414S57.684,66.902,57.293,67.293z"/>
<path d="M80.293,50.293l-2,2c-0.391,0.391-0.391,1.023,0,1.414C78.488,53.902,78.744,54,79,54s0.512-0.098,0.707-0.293l2-2
	c0.391-0.391,0.391-1.023,0-1.414S80.684,49.902,80.293,50.293z"/>
<path d="M78.293,47.707C78.488,47.902,78.744,48,79,48s0.512-0.098,0.707-0.293l2-2c0.391-0.391,0.391-1.023,0-1.414
	s-1.023-0.391-1.414,0l-2,2C77.902,46.684,77.902,47.316,78.293,47.707z"/>
<path d="M75.293,44.707C75.488,44.902,75.744,45,76,45s0.512-0.098,0.707-0.293l3-3c0.391-0.391,0.391-1.023,0-1.414
	s-1.023-0.391-1.414,0l-3,3C74.902,43.684,74.902,44.316,75.293,44.707z"/>
<path d="M72.293,41.707C72.488,41.902,72.744,42,73,42s0.512-0.098,0.707-0.293l4-4c0.391-0.391,0.391-1.023,0-1.414
	s-1.023-0.391-1.414,0l-4,4C71.902,40.684,71.902,41.316,72.293,41.707z"/>
<path d="M69.293,38.707C69.488,38.902,69.744,39,70,39s0.512-0.098,0.707-0.293l3-3c0.391-0.391,0.391-1.023,0-1.414
	s-1.023-0.391-1.414,0l-3,3C68.902,37.684,68.902,38.316,69.293,38.707z"/>
<path d="M68.707,33.293c-0.391-0.391-1.023-0.391-1.414,0l-2,2c-0.391,0.391-0.391,1.023,0,1.414C65.488,36.902,65.744,37,66,37
	s0.512-0.098,0.707-0.293l2-2C69.098,34.316,69.098,33.684,68.707,33.293z"/>
<path d="M60,37c0.256,0,0.512-0.098,0.707-0.293l2-2c0.391-0.391,0.391-1.023,0-1.414s-1.023-0.391-1.414,0l-2,2
	c-0.391,0.391-0.391,1.023,0,1.414C59.488,36.902,59.744,37,60,37z"/>
<path d="M55.707,47.707l1-1c0.391-0.391,0.391-1.023,0-1.414s-1.023-0.391-1.414,0l-1,1c-0.391,0.391-0.391,1.023,0,1.414
	C54.488,47.902,54.744,48,55,48S55.512,47.902,55.707,47.707z"/>
<path d="M58.707,49.293c-0.391-0.391-1.023-0.391-1.414,0l-2,2c-0.391,0.391-0.391,1.023,0,1.414C55.488,52.902,55.744,53,56,53
	s0.512-0.098,0.707-0.293l2-2C59.098,50.316,59.098,49.684,58.707,49.293z"/>
<path d="M60.707,53.293c-0.391-0.391-1.023-0.391-1.414,0l-2,2c-0.391,0.391-0.391,1.023,0,1.414C57.488,56.902,57.744,57,58,57
	s0.512-0.098,0.707-0.293l2-2C61.098,54.316,61.098,53.684,60.707,53.293z"/>
<path d="M63.293,55.293l-2,2c-0.391,0.391-0.391,1.023,0,1.414C61.488,58.902,61.744,59,62,59s0.512-0.098,0.707-0.293l2-2
	c0.391-0.391,0.391-1.023,0-1.414S63.684,54.902,63.293,55.293z"/>
<path d="M68.293,56.293l-1,1c-0.391,0.391-0.391,1.023,0,1.414C67.488,58.902,67.744,59,68,59s0.512-0.098,0.707-0.293l1-1
	c0.391-0.391,0.391-1.023,0-1.414S68.684,55.902,68.293,56.293z"/>
</svg>
