<svg width="99" height="100" viewBox="0 0 99 100" fill="none" xmlns="http://www.w3.org/2000/svg">
<path d="M55.7228 7.30511C55.7228 7.30511 49.265 0.255702 49.0506 0C45.989 4.17369 42.847 6.59174 42.847 6.59174L48.3102 12.2895L42.762 17.548C42.762 17.548 48.5006 24.9449 49.0081 26.6078C49.0173 26.6375 49.0487 26.6338 49.0506 26.6023C49.2845 22.4443 55.3392 18.0937 55.3392 18.0937L50.2939 12.3024L55.7228 7.30511Z" fill="black"/>
<path d="M5.93633 25.1571C6.26541 25.0987 15.5851 23.0179 15.5851 23.0179L17.1889 30.2285L24.7162 28.7452C24.7162 28.7452 25.4484 36.1745 28.9241 38.4582C28.9499 38.4749 28.9379 38.5045 28.9065 38.498C27.2167 38.1061 17.9552 39.3884 17.9552 39.3884L16.1878 31.9443L8.53109 33.837C8.53109 33.837 8.01251 29.9005 5.93633 25.1571Z" fill="black"/>
<path d="M9.0948 65.7154C9.0948 65.7154 6.23381 74.8456 6.11919 75.1588C11.256 75.7294 14.9166 77.247 14.9166 77.247L17.1083 69.6556L24.4258 71.8439C24.4258 71.8439 27.9487 63.1639 29.131 61.8928C29.1531 61.8687 29.1337 61.8437 29.106 61.8576C25.3946 63.7328 18.6086 60.6532 18.6086 60.6532L16.1276 67.9296L9.0948 65.7154Z" fill="black"/>
<path d="M49.4111 100C49.1967 99.7443 42.7389 92.6949 42.7389 92.6949L48.1678 87.6976L43.1216 81.9063C43.1216 81.9063 49.1773 77.5557 49.4111 73.3977C49.413 73.3662 49.4444 73.3625 49.4537 73.3922C49.9611 75.0552 55.6998 82.452 55.6998 82.452L50.1506 87.7106L55.6147 93.4083C55.6147 93.4083 52.4727 95.8263 49.4111 100Z" fill="black"/>
<path d="M92.3418 24.8411C92.2281 25.1542 89.3671 34.2844 89.3671 34.2844L82.3343 32.0702L79.8533 39.3466C79.8533 39.3466 73.0664 36.2671 69.3559 38.1422C69.3282 38.157 69.3088 38.1311 69.33 38.107C70.5132 36.8359 74.0361 28.1559 74.0361 28.1559L81.3536 30.3442L83.5453 22.7528C83.5453 22.7528 87.2059 24.2704 92.3418 24.8411Z" fill="black"/>
<path d="M82.8768 76.9821C82.8768 76.9821 92.1965 74.9013 92.5247 74.8429C90.4494 70.0994 89.9299 66.1629 89.9299 66.1629L82.2741 68.0557L80.5067 60.6116C80.5067 60.6116 71.2452 61.8938 69.5554 61.5019C69.524 61.4954 69.512 61.5251 69.5379 61.5418C73.0136 63.8255 73.7457 71.2547 73.7457 71.2547L81.273 69.7715L82.8768 76.9821Z" fill="black"/>
<path d="M35.8041 5.8524C35.536 4.73324 35.2143 4.11529 34.8353 3.99856C33.1899 3.28704 31.8264 3.21292 30.7449 3.78084C29.2881 4.44141 29.2169 6.84186 30.5351 10.985C31.1942 13.2631 31.9411 15.4996 32.7675 17.6934C31.5824 16.8448 30.5868 16.0536 29.7789 15.3217C25.291 12.2135 22.0723 11.2231 20.1191 12.3543C19.0366 12.9222 19.203 14.2526 20.6155 16.3492C20.9575 16.7994 21.8514 17.0394 23.2971 17.0681C24.7447 17.0977 25.5711 17.0042 25.7772 16.7911C25.8567 16.54 25.8946 16.3093 25.8919 16.0999C28.1631 16.5891 30.255 17.8556 32.1703 19.8975C33.7446 21.4873 34.7808 22.1525 35.28 21.8894C35.7394 21.7541 35.0877 19.3916 33.3249 14.7992C31.5611 10.2095 31.2616 7.60804 32.4255 6.99658C33.0069 6.69084 33.7205 6.73717 34.5663 7.13462C35.4085 7.53114 35.8318 7.73125 35.8318 7.73125C36.1637 7.55615 36.1544 6.92987 35.8041 5.8524Z" fill="black"/>
<path d="M2.24176 40.8178C2.53202 40.5482 3.22808 40.576 4.32995 40.9049C5.4346 41.1384 5.98184 41.4423 5.9652 41.8193C5.9652 41.8193 5.58343 42.0871 4.81803 42.6198C4.05171 43.1534 3.65608 43.7492 3.62834 44.4088C3.57473 45.7234 5.97167 46.7648 10.8201 47.53C15.6694 48.2962 18.0377 48.9114 17.925 49.3774C17.9019 49.9425 16.8101 50.5086 14.6489 51.0802C11.9257 51.7204 9.78755 52.9053 8.22811 54.6304C8.40929 54.7314 8.58862 54.8805 8.76703 55.076C8.85022 55.3632 8.51559 56.1257 7.76684 57.3671C7.019 58.6077 6.36361 59.2636 5.80528 59.3359C3.28724 59.5137 2.05411 58.9931 2.1031 57.7683C2.1031 55.5087 4.56937 53.2074 9.49914 50.8662C10.5345 50.5345 11.7168 50.063 13.0423 49.4589C10.7332 49.0818 8.4287 48.6093 6.12697 48.0442C1.89141 47.115 -0.148714 45.8541 0.00842897 44.2587C0.0592703 43.0358 0.80433 41.8898 2.24176 40.8178Z" fill="black"/>
<path d="M19.246 84.5911C18.4113 85.386 18.0388 85.9743 18.1275 86.3606C18.3337 88.1468 18.9539 89.3651 19.9846 90.0192C21.2843 90.954 23.3938 89.8154 26.3149 86.6006C27.9538 84.8866 29.5142 83.1217 30.996 81.3077C30.8536 82.7613 30.6687 84.0213 30.4386 85.0876C29.9967 90.538 30.7528 93.826 32.7061 94.9572C33.7386 95.6113 34.8035 94.8025 35.91 92.528C36.1291 92.0074 35.8888 91.1105 35.1908 89.8404C34.4929 88.5711 33.9993 87.8985 33.71 87.8272C33.4548 87.8837 33.2348 87.9652 33.0564 88.0718C32.3437 85.8575 32.3918 83.4061 33.1979 80.725C33.7858 78.5617 33.8422 77.3313 33.3661 77.0284C33.0176 76.6977 31.3029 78.4459 28.2172 82.2721C25.1316 86.0975 23.0333 87.6586 21.9231 86.9535C21.3684 86.6006 21.0504 85.9585 20.971 85.0274C20.8952 84.0954 20.8536 83.6313 20.8536 83.6313C20.5383 83.4284 20.0013 83.7508 19.246 84.5911Z" fill="black"/>
<path d="M64.9032 95.0555C64.5242 94.9406 64.2025 94.3227 63.9345 93.2007C63.5841 92.1242 63.5739 91.4979 63.9067 91.3237C63.9067 91.3237 64.3301 91.5229 65.1722 91.9213C66.018 92.3169 66.7307 92.3632 67.3131 92.0575C68.4778 91.446 68.1774 88.8445 66.4146 84.2549C64.6509 79.6633 63.9992 77.2999 64.4586 77.1638C64.9578 76.9016 65.994 77.5668 67.5682 79.1584C69.4845 81.1994 71.5755 82.4649 73.8467 82.9541C73.8439 82.7447 73.8818 82.514 73.9613 82.2639C74.1675 82.0499 74.9948 81.9582 76.4415 81.986C77.8872 82.0156 78.7811 82.2565 79.124 82.7049C80.5356 84.8015 80.702 86.1319 79.6195 86.7007C77.6663 87.831 74.4476 86.8406 69.9596 83.7323C69.1517 83.0014 68.1561 82.2102 66.9711 81.3625C67.7975 83.5545 68.5435 85.7909 69.2035 88.0709C70.5217 92.2131 70.4496 94.6145 68.9936 95.2732C67.9121 95.8421 66.5496 95.7689 64.9032 95.0555Z" fill="black"/>
<path d="M94.67 59.0931C95.7728 59.4239 96.4689 59.4517 96.7592 59.1802C98.1957 58.1083 98.9416 56.9642 98.9916 55.7394C99.1487 54.1459 97.1104 52.8831 92.874 51.9539C90.5722 51.3887 88.2677 50.9162 85.9586 50.5401C87.2842 49.9351 88.4665 49.4654 89.5018 49.1319C94.4315 46.7907 96.8978 44.4913 96.8978 42.2298C96.9468 41.0059 95.7128 40.4843 93.1956 40.6622C92.6373 40.7345 91.9819 41.3913 91.2332 42.6328C90.4853 43.8724 90.1507 44.6358 90.2348 44.9221C90.4123 45.1185 90.5907 45.2667 90.7719 45.3677C89.2152 47.0928 87.0743 48.2777 84.352 48.9179C82.1908 49.4895 81.0991 50.0574 81.076 50.6207C80.9632 51.0867 83.3315 51.7037 88.1808 52.4681C93.0292 53.2333 95.4262 54.2746 95.3726 55.5911C95.3448 56.2489 94.9492 56.8456 94.1829 57.3792L93.0357 58.1787C93.0191 58.5567 93.5654 58.8606 94.67 59.0931Z" fill="black"/>
<path d="M81.5245 13.8496C81.6133 14.2359 81.2407 14.8261 80.4051 15.6182C79.6508 16.4613 79.1128 16.7809 78.7985 16.5808C78.7985 16.5808 78.7569 16.1139 78.6802 15.1846C78.6016 14.2526 78.2836 13.6106 77.7281 13.2585C76.6188 12.5535 74.5204 14.1127 71.4348 17.939C68.3492 21.7643 66.6335 23.5125 66.286 23.1818C65.8099 22.8807 65.8663 21.6485 66.4542 19.4871C67.2603 16.8041 67.3074 14.3536 66.5956 12.1384C66.4172 12.245 66.1972 12.3284 65.9412 12.3849C65.6537 12.3117 65.1591 11.6409 64.4612 10.3689C63.7633 9.10151 63.523 8.2047 63.742 7.68218C64.8485 5.40958 65.9134 4.59986 66.946 5.25301C68.8992 6.38421 69.6544 9.67406 69.2135 15.1216C68.9833 16.1898 68.7985 17.4489 68.6561 18.9025C70.1379 17.0876 71.6983 15.3236 73.3372 13.6096C76.2583 10.3967 78.3696 9.25623 79.6674 10.191C80.6981 10.846 81.3184 12.0652 81.5245 13.8496Z" fill="black"/>
<path d="M66.4864 55.303C67.5929 55.655 68.4027 56.0701 68.8399 56.3221C68.8963 56.3545 68.8547 56.4351 68.7937 56.4166C68.0071 56.1701 67.2389 55.9932 66.4864 55.8727C64.1718 55.5031 62.0179 55.7014 60.0129 56.2758C59.0442 56.5528 58.1115 56.9178 57.2111 57.3495C56.6084 57.6386 56.0196 57.9545 55.4474 58.2954C55.0157 58.5539 54.5951 58.8244 54.181 59.1033C53.1909 59.7722 52.2481 60.4985 51.3523 61.2471C52.2251 62.0084 53.0519 62.7629 53.8184 63.4623C53.9408 63.574 54.0617 63.6843 54.181 63.793C54.6265 64.197 55.049 64.5796 55.4474 64.9289C56.1148 65.5153 56.7082 66.0063 57.2111 66.3547C57.4302 66.5048 57.6336 66.6326 57.8166 66.7243C58.1429 66.2769 58.7105 66.0193 59.3298 66.1546C59.5886 66.2111 59.8244 66.3426 60.0129 66.5224C60.2172 66.7151 60.3651 66.9634 60.4289 67.2413C60.538 67.7212 60.3263 68.3262 60.1423 68.5087C60.1007 68.5522 60.0564 68.5874 60.0129 68.6245C59.2152 69.3249 58.2862 69.2545 57.2111 68.6866C56.662 68.3957 56.0732 67.9741 55.4474 67.4609C55.0416 67.1301 54.621 66.7586 54.181 66.3612C53.6457 65.8741 53.0851 65.3442 52.4981 64.7895C51.9173 64.2405 51.3107 63.6672 50.6775 63.0871C50.4446 62.8731 50.2088 62.6572 49.9676 62.4441C49.7254 62.659 49.4887 62.8758 49.2549 63.0908C48.6281 63.6652 48.0272 64.2328 47.4515 64.7767C45.4468 66.6706 43.7471 68.2764 42.3201 68.8774C41.3569 69.2823 40.5175 69.235 39.7928 68.5087C39.522 68.2391 39.3981 67.7212 39.5081 67.2413C39.6283 66.7067 40.0692 66.2731 40.6063 66.1546C41.2266 66.0193 41.7923 66.2769 42.1195 66.7243C42.1805 66.6924 42.245 66.6563 42.3112 66.6191L42.3201 66.6141C43.2468 66.0757 44.5809 64.8607 46.174 63.4098C46.9249 62.7259 47.7333 61.9897 48.5838 61.2471C46.7036 59.6796 44.62 58.1982 42.3201 57.1596C40.6784 56.4194 38.9257 55.9033 37.0566 55.7412C35.3456 55.5911 33.5366 55.7347 31.624 56.2758C31.5908 56.2852 31.5577 56.2945 31.5244 56.3038C31.3974 56.3396 31.2697 56.3754 31.1415 56.4166C31.0805 56.4351 31.0398 56.3545 31.0962 56.3221C31.2339 56.2424 31.4132 56.1442 31.624 56.0386C32.6685 55.5161 34.57 54.7712 37.0566 54.6619C38.6059 54.5942 40.3807 54.774 42.3201 55.4114C42.5457 55.4855 42.7731 55.5642 43.0051 55.6513C44.8816 56.3628 46.7766 57.5784 48.5764 58.956C49.3763 54.0962 49.081 46.8648 49.0304 45.6256C49.0255 45.5057 49.0238 45.4418 49.0238 45.4418C48.9464 45.1981 48.8149 45.0582 48.6821 44.917C48.5453 44.7714 48.407 44.6243 48.3249 44.3606C48.1835 43.9066 48.4433 43.4842 48.4433 43.4842C46.6518 44.1605 45.5777 45.8309 45.5037 48.8928C44.1652 46.5637 44.2604 44.23 46.6814 42.2826C44.7503 42.7856 43.1271 43.7584 42.7869 47.8533C41.3809 44.041 43.0975 40.8049 46.3116 40.0822C43.47 40.2934 41.515 41.9425 40.7292 45.4946C40.1071 42.4373 41.0315 38.7426 46.0297 37.9569C43.9979 37.5743 42.1805 37.8921 40.744 39.455C41.8792 37.3696 43.4164 35.7955 46.5547 36.2504C46.2469 35.6352 45.1737 35.1887 43.2907 34.9228C44.9186 34.4104 46.5094 34.24 47.9469 35.4036C47.7648 34.5967 47.1473 33.9027 46.222 33.2904C47.4394 33.3988 48.6781 33.8407 49.3529 35.1229C49.3704 34.5883 49.4083 34.1121 49.4989 33.6869C49.5895 33.2616 49.7346 32.8883 49.9676 32.5557C50.4344 33.219 50.5463 34.0528 50.5823 35.1229C51.258 33.8407 52.4958 33.3988 53.7141 33.2904C52.7888 33.9027 52.1695 34.5967 51.9892 35.4036C53.4266 34.24 55.0157 34.4104 56.6454 34.9228C54.7615 35.1887 53.6892 35.6352 53.3804 36.2504C56.5187 35.7955 58.0569 37.3696 59.1921 39.455C57.7565 37.8921 55.9382 37.5743 53.9055 37.9569C58.9046 38.7426 59.8281 42.4373 59.2069 45.4946C58.4221 41.9425 56.466 40.2934 53.6254 40.0822C56.8377 40.8049 58.5552 44.041 57.1482 47.8533C56.8081 43.7584 55.1858 42.7856 53.2547 42.2826C55.6757 44.23 55.77 46.5637 54.4315 48.8928C54.3584 45.8309 53.2834 44.1605 51.4928 43.4842C51.4928 43.4842 51.7517 43.9066 51.6121 44.3606C51.5297 44.6232 51.3916 44.7702 51.2551 44.9155C51.1234 45.0556 50.9932 45.1941 50.916 45.4334C50.916 45.4334 50.9141 45.5047 50.9085 45.6385C50.854 46.9316 50.554 54.0572 51.3606 58.956C52.2804 58.25 53.2251 57.5895 54.181 57.0151C54.6034 56.7631 55.024 56.5278 55.4474 56.3119C55.9419 56.0627 56.4365 55.8385 56.931 55.6513C57.0262 55.6161 57.1177 55.5855 57.2111 55.5522C58.1873 55.2029 59.1237 54.9695 60.0129 54.8277C62.6576 54.408 64.8854 54.7897 66.4864 55.303Z" fill="black"/>
</svg>
