<svg width="100" height="94" viewBox="0 0 100 94" fill="none" xmlns="http://www.w3.org/2000/svg">
<path d="M87.1454 51.0745L91.6266 59.8319L96.1845 51.0745H99.9999L93.3934 62.9047V69.2551H89.8853V62.8535L83.3044 51.0745H87.1454Z" fill="black"/>
<path d="M79.9412 67.2066C78.4902 68.6576 76.8001 69.3831 74.8711 69.3831C73.6761 69.3831 72.5495 69.1441 71.491 68.6661C70.4497 68.1882 69.5364 67.5309 68.7511 66.6944C67.9829 65.858 67.3684 64.8764 66.9075 63.7497C66.4636 62.6059 66.2417 61.3768 66.2417 60.0623C66.2417 58.8162 66.4636 57.6468 66.9075 56.5542C67.3684 55.4446 67.9915 54.4801 68.7767 53.6607C69.5791 52.8242 70.518 52.167 71.5935 51.689C72.669 51.1939 73.8383 50.9464 75.1016 50.9464C76.8087 50.9464 78.2682 51.3049 79.4803 52.0219C80.7094 52.7389 81.6312 53.7034 82.2458 54.9154L79.6083 56.8615C79.1474 55.9568 78.4987 55.2654 77.6622 54.7874C76.8428 54.3094 75.9466 54.0704 74.9735 54.0704C74.2053 54.0704 73.4969 54.2326 72.8482 54.5569C72.2166 54.8813 71.6703 55.3251 71.2094 55.8885C70.7655 56.4518 70.4156 57.1005 70.1595 57.8346C69.9205 58.5686 69.801 59.3454 69.801 60.1648C69.801 61.0183 69.9376 61.8207 70.2107 62.5718C70.4839 63.3058 70.8594 63.946 71.3374 64.4923C71.8154 65.0385 72.3787 65.4739 73.0274 65.7982C73.6932 66.1055 74.4102 66.2591 75.1784 66.2591C76.9367 66.2591 78.5243 65.4312 79.9412 63.7753V62.495H76.2795V59.9087H82.8604V69.2551H79.9412V67.2066Z" fill="black"/>
<path d="M50.2877 69.2551V51.0745H58.3282C59.1647 51.0745 59.9329 51.2537 60.6328 51.6122C61.3497 51.9536 61.9643 52.4145 62.4764 52.995C62.9886 53.5583 63.3897 54.207 63.6799 54.9411C63.9702 55.658 64.1153 56.3836 64.1153 57.1176C64.1153 58.2955 63.8165 59.371 63.219 60.344C62.6386 61.3 61.8448 61.9914 60.8376 62.4182L64.9859 69.2551H61.0169L57.3039 63.1608H53.8214V69.2551H50.2877ZM53.8214 60.0624H58.2514C58.5757 60.0624 58.8744 59.9855 59.1476 59.8319C59.4378 59.6783 59.6853 59.4734 59.8902 59.2173C60.095 58.9442 60.2572 58.6284 60.3767 58.2699C60.4962 57.9114 60.5559 57.5273 60.5559 57.1176C60.5559 56.6908 60.4877 56.2982 60.3511 55.9397C60.2145 55.5812 60.0267 55.2739 59.7877 55.0179C59.5658 54.7447 59.3012 54.5399 58.9939 54.4033C58.7037 54.2497 58.405 54.1729 58.0977 54.1729H53.8214V60.0624Z" fill="black"/>
<path d="M47.533 66.1567V69.2551H34.9089V51.0745H47.3025V54.1729H38.4426V58.5516H46.099V61.4195H38.4426V66.1567H47.533Z" fill="black"/>
<path d="M18.9127 57.6041V69.2551H15.379V51.0745H18.1189L27.5932 63.0071V51.1001H31.1269V69.2551H28.259L18.9127 57.6041Z" fill="black"/>
<path d="M12.624 66.1567V69.2551H0V51.0745H12.3936V54.1729H3.5337V58.5516H11.1901V61.4195H3.5337V66.1567H12.624Z" fill="black"/>
<path d="M0 42.8108C0 41.8914 0.068471 41.0698 0.205386 40.3462C0.342301 39.6225 0.577028 38.9672 0.909566 38.3804C1.2421 37.7741 1.69198 37.2166 2.25924 36.7079C2.82651 36.1993 3.54045 35.7005 4.40113 35.2115C5.32048 34.7029 6.08334 34.2825 6.68971 33.9499C7.31566 33.6173 7.80466 33.3239 8.15675 33.0697C8.5284 32.8155 8.79246 32.5903 8.94896 32.3948C9.10545 32.1796 9.18368 31.9352 9.18368 31.6613C9.18368 31.1137 8.98809 30.6736 8.59687 30.341C8.20565 30.0083 7.64817 29.8422 6.92444 29.8422C6.10289 29.8422 5.38893 30.0476 4.78256 30.4583C4.17619 30.8496 3.58937 31.3679 3.02211 32.0134L0.029341 28.5512C0.342301 28.1991 0.762862 27.8569 1.291 27.5242C1.81913 27.1916 2.41574 26.8982 3.08079 26.644C3.74584 26.3701 4.4696 26.1551 5.25201 25.9985C6.054 25.8419 6.88531 25.7638 7.74598 25.7638C9.85852 25.7638 11.4723 26.2234 12.5872 27.1428C13.7217 28.0623 14.289 29.3042 14.289 30.8691C14.289 31.5146 14.1814 32.0915 13.9662 32.6002C13.7706 33.1089 13.5066 33.5685 13.174 33.9792C12.8415 34.3705 12.4699 34.7226 12.0591 35.0355C11.6483 35.3289 11.2278 35.6028 10.7974 35.857C10.504 36.0331 10.1519 36.2385 9.74116 36.4732C9.33039 36.7079 8.91962 36.9525 8.50884 37.2067C8.11762 37.4415 7.74598 37.686 7.39389 37.9402C7.06135 38.175 6.80707 38.3902 6.63103 38.5857H14.6117V42.8108H0Z" fill="black"/>
<path d="M0 18.1807V0H4.19947V14.4933H13.0081V18.1807H0Z" fill="black"/>
<path d="M0 77.0864H3.46755V90.4232H89.8897V77.0864H93.3572V93.8907H0V77.0864Z" fill="black"/>
<path d="M12.8054 0L12.8054 3.46755H89.8897V42.6776H93.3572V0.266735V0H12.8054Z" fill="black"/>
</svg>
