<svg width="47" height="90" viewBox="0 0 47 90" fill="none" xmlns="http://www.w3.org/2000/svg">
<path d="M8 41C12.3333 41 21.6 41 24 41C27 41 29 43 29 46C29 49 29 79 29 82C29 85 31 87 34 87C36.4 87 39.6667 87 41 87C41 86.5 41.5 86 42 86C42.5 86 43 86.5 43 87C43 87.5 42.5 88 42 88C41.6 88 41.1667 87.6667 41 87.5" stroke="#D0809D" stroke-width="4"/>
<path d="M24 31C25.3333 31 28.6 31 31 31C34 31 36 33 36 36C36 39 36 50 36 53C36 56 38 58 41 58H42C42 57.5 42.5 57 43 57C43.5 57 44 57.5 44 58C44 58.5 43.5 59 43 59C42.6 59 42.1667 58.6667 42 58.5" stroke="#D9B762" stroke-width="4"/>
<path d="M4 31H43C43 30.5 43.5 30 44 30C44.5 30 45 30.5 45 31C45 31.5 44.5 32 44 32C43.6 32 43.1667 31.6667 43 31.5" stroke="#8DDBB5" stroke-width="4"/>
<path d="M0 21C8.66667 21 26.6 21 29 21C32 21 34 19 34 16C34 13 34 11 34 8C34 5 36 3 39 3C41.4 3 42.6667 3 43 3C43 2.5 43.5 2 44 2C44.5 2 45 2.5 45 3C45 3.5 44.5 4 44 4C43.6 4 43.1667 3.66667 43 3.5" stroke="#60A2FB" stroke-width="4"/>
</svg>
