<svg width="81" height="100" viewBox="0 0 81 100" fill="none" xmlns="http://www.w3.org/2000/svg">
<path d="M46.9927 52.0607C47.2096 52.3565 47.4462 52.6523 47.6632 52.9679C47.0124 53.1651 46.3419 53.3425 45.6715 53.4806C45.6123 53.4017 45.5531 53.3031 45.4743 53.2242C44.8629 52.4354 44.2516 51.6269 43.7783 50.7001C42.2402 47.7026 42.5754 44.3305 42.8909 41.057C43.2065 37.8229 43.522 34.7466 42.043 32.2422C40.8006 30.1321 38.5328 28.8306 36.1467 27.4699C33.6225 26.0304 30.9998 24.5316 29.5208 21.9286C28.6531 20.3905 28.2981 18.6945 27.9826 17.0578C27.7854 16.0521 27.5882 15.1055 27.2924 14.1984C26.3262 11.3193 24.1767 8.91343 21.968 6.90199C22.4413 6.46815 22.9343 6.07375 23.447 5.67935C25.774 7.82883 28.0221 10.4121 29.087 13.6068C29.4222 14.6322 29.6391 15.6774 29.8363 16.7028C30.1518 18.2607 30.4476 19.72 31.1575 21.0018C32.3802 23.1513 34.6677 24.4528 37.0735 25.8332C39.578 27.2727 42.1613 28.732 43.66 31.2956C45.4545 34.3522 45.0996 37.8624 44.7643 41.2739C44.4488 44.4094 44.153 47.3674 45.4348 49.8521C45.8686 50.5817 46.4011 51.2917 46.9927 52.0607ZM36.5017 33.3662C35.9298 33.0112 35.3382 32.7154 34.7663 32.4394C33.9578 32.045 33.1887 31.6703 32.5774 31.1576C30.9998 29.8166 29.7574 27.8643 29.0672 25.6951C27.8249 21.8497 25.7346 17.6691 19.4833 15.6971C18.2804 15.3224 17.0183 15.1055 15.8351 14.928C15.5393 15.5196 15.2632 16.1112 15.0069 16.7423C16.3281 16.9395 17.6691 17.1367 18.9114 17.5311C23.2696 18.8917 25.6951 21.4356 27.253 26.2867C28.0615 28.7912 29.5208 31.0392 31.335 32.6168C32.1435 33.307 33.0507 33.7606 33.9381 34.1747C34.4902 34.4508 35.0029 34.6874 35.4959 35.003C37.6849 36.3834 39.0258 39.0456 38.8286 41.6289C38.6709 43.7586 37.606 45.6912 36.4819 47.7618C36.265 48.1759 36.0284 48.59 35.8115 48.9844C35.1607 50.2071 34.4508 51.7649 34.1155 53.4609C34.7269 53.5989 35.3579 53.7172 35.9889 53.8158C36.2256 52.6523 36.7186 51.3508 37.5074 49.8915C37.7243 49.4971 37.9412 49.083 38.1581 48.6886C39.3216 46.5391 40.5443 44.3305 40.7415 41.7866C40.9584 38.4737 39.2625 35.1016 36.5017 33.3662ZM51.3114 33.8986L51.193 33.8395C50.2662 33.3465 49.1027 32.7352 48.5506 31.335C48.3928 30.9012 48.2548 30.3885 48.1364 29.856C48.0181 29.363 47.8998 28.8503 47.742 28.3968C47.111 26.5628 45.7109 25.3402 44.3699 24.1373C43.4037 23.2893 42.4965 22.4808 41.8852 21.4948C41.0767 20.1735 40.7612 18.4185 40.4457 16.7225C39.9527 14.0406 39.4597 11.2601 36.9947 9.74167C36.3636 9.34727 35.7129 9.13035 35.0621 8.89371C34.3916 8.65707 33.7409 8.42043 33.2479 8.04575C32.7746 7.67107 32.3999 7.11891 32.0252 6.54703C31.0984 5.12719 30.2307 3.6482 29.4222 2.14948C28.8306 2.40584 28.2587 2.6622 27.6868 2.958C28.5348 4.53559 29.4419 6.07375 30.4082 7.59219C30.8815 8.32183 31.3547 9.01203 32.0647 9.56419C32.7943 10.1361 33.6225 10.4121 34.4113 10.7079C34.9832 10.9051 35.5157 11.1023 35.9692 11.3784C37.7243 12.463 38.099 14.5928 38.5525 17.0775C38.8878 18.9509 39.2427 20.8835 40.2485 22.5005C40.9978 23.7231 42.0627 24.6697 43.0881 25.5768C44.3108 26.6614 45.4545 27.6868 45.9278 29.0278C46.0658 29.4025 46.1644 29.856 46.2828 30.3096C46.4208 30.9012 46.5588 31.4928 46.7758 32.045C47.5646 34.0958 49.2802 35.003 50.2859 35.5354L50.3845 35.5946C54.368 37.7243 53.6975 41.1556 52.9284 45.139C52.6129 46.7561 52.2776 48.452 52.3565 49.9901C52.3762 50.3648 52.4157 50.7001 52.4748 50.9959C53.0862 50.6803 53.6778 50.3254 54.2694 49.9704C54.2694 49.9507 54.2694 49.931 54.2694 49.9113C54.2102 48.59 54.506 47.0913 54.8215 45.494C55.5906 41.5697 56.5569 36.6792 51.3114 33.8986ZM35.7917 6.11319C36.2847 6.38927 36.8566 6.70479 37.5271 7.09919C39.4794 8.24295 40.9584 10.4516 41.5894 13.1532C41.688 13.5476 41.7472 13.942 41.8261 14.3759C42.0233 15.5393 42.2402 16.7225 42.8909 17.8269C43.4628 18.7734 44.4291 19.4636 45.5137 19.6805C45.77 19.7397 46.0264 19.7594 46.2631 19.7594C46.9335 19.7594 47.5646 19.5622 48.097 19.1875C50.7198 17.3733 49.1816 14.6322 48.0576 12.6405C47.4265 11.5165 46.7758 10.353 46.7166 9.40643C46.6969 9.09091 46.7166 8.77539 46.7166 8.44015C46.7363 7.86827 46.7561 7.27667 46.6575 6.66535C46.3025 4.3384 44.646 2.78052 43.029 1.2818C42.5951 0.867679 42.1613 0.473279 41.7669 0.05916C41.1556 0.01972 40.5443 0 39.9329 0C39.6963 0 39.4597 0 39.223 0C39.3216 0.13804 39.4202 0.27608 39.5385 0.41412C40.1893 1.24236 40.9781 1.972 41.7275 2.68192C43.167 4.02288 44.5277 5.28495 44.7643 6.96115C44.8235 7.41471 44.8235 7.88799 44.8038 8.40071C44.784 8.75567 44.784 9.13035 44.8038 9.50503C44.8629 10.8854 45.632 12.2658 46.3814 13.5871C47.7618 16.0323 48.0181 16.9197 46.9927 17.6297C46.5983 17.9057 46.1842 17.886 45.8884 17.8269C45.3362 17.7085 44.8038 17.3339 44.508 16.8409C44.0347 16.0521 43.8572 15.0858 43.6797 14.0603C43.6009 13.6265 43.522 13.1729 43.4234 12.7391C42.674 9.52475 40.8598 6.88227 38.4539 5.46243C37.7637 5.04831 37.1919 4.73279 36.6791 4.45671C34.4113 3.21436 34.2141 3.09604 33.6817 0.769079C33.0507 0.907119 32.4393 1.0846 31.8477 1.2818C32.5971 4.25951 33.2479 4.71307 35.7917 6.11319ZM58.3514 25.3599L58.312 25.2613C56.6949 21.7511 54.8018 19.9172 52.6918 19.7989C50.5423 19.6805 49.1619 21.199 48.7675 22.6385C47.9984 25.3007 49.2802 28.1601 50.3451 29.4419C51.1536 30.4082 52.0607 31.1773 52.9481 31.9266C53.1453 32.0844 53.3425 32.2619 53.5397 32.4196C55.2554 33.8986 56.34 35.8115 57.0499 38.6314C57.7006 41.2739 58.3317 43.7586 58.4697 46.4208C58.4697 46.5194 58.4697 46.6377 58.4894 46.7561C59.1205 46.1645 59.7121 45.5531 60.2642 44.9221C60.0079 42.6149 59.4754 40.4457 58.9036 38.1582C58.095 34.9241 56.833 32.7154 54.7821 30.9604C54.5849 30.7829 54.368 30.6251 54.1708 30.4476C53.3228 29.7377 52.5143 29.0475 51.8241 28.2193C50.9958 27.2333 50.0887 24.9852 50.6212 23.1513V23.1315C50.7592 22.5794 51.3114 21.692 52.4748 21.692H52.5932C53.52 21.7314 54.9793 22.5399 56.5766 26.0501L56.6358 26.1684C59.8304 33.0507 62.9067 35.496 65.2337 36.6989C65.4703 36.1073 65.6675 35.496 65.8647 34.8649C63.7744 33.7212 61.1911 31.4534 58.3514 25.3599ZM66.9099 25.143C66.3971 24.3936 65.8253 23.6837 65.1548 23.0132C63.5772 21.4159 61.7038 20.2327 59.8895 19.0692C58.9036 18.4382 57.8584 17.7874 56.9316 17.0775C55.1765 15.776 53.9933 14.4745 53.2636 13.0941C52.6326 11.8911 52.2974 10.5305 51.9424 9.09091V9.07119C51.41 6.92171 50.7789 4.23979 49.5563 1.79452C48.6886 1.45928 47.7815 1.1832 46.8744 0.926839C48.4717 3.27352 49.2802 6.23151 50.0887 9.52475V9.54447C50.4437 11.0235 50.8184 12.5616 51.5677 14.0012C52.4354 15.6379 53.8158 17.1367 55.7878 18.6157C56.7935 19.365 57.8387 20.0355 58.8641 20.6863C60.6784 21.83 62.3743 22.9146 63.7941 24.3542C65.0365 25.6162 66.0619 27.1544 66.8901 29.0475C66.9296 28.3968 66.969 27.7263 66.969 27.0558C66.9887 26.4051 66.9493 25.774 66.9099 25.143ZM63.6166 18.6157C63.6955 18.6748 63.7941 18.7537 63.9321 18.8523C64.6618 19.3847 65.4111 19.8975 66.1408 20.3707C65.8844 19.365 65.5689 18.379 65.1942 17.4127C65.1351 17.3733 65.0956 17.3339 65.0365 17.2944C64.8984 17.1958 64.7801 17.0972 64.7012 17.0381C62.5912 15.5591 58.7655 10.984 57.8978 9.36699C57.2471 8.12463 56.7935 6.88227 56.4386 5.62019C55.6695 5.02859 54.861 4.45671 54.013 3.96372C54.5257 6.01459 55.0779 8.12463 56.2216 10.2544C57.2076 12.1081 61.2305 16.9395 63.6166 18.6157ZM33.7606 42.5163C33.0112 40.4062 31.8675 38.8878 31.8083 38.8286C31.1575 37.9807 30.5659 37.4482 30.0335 36.9947C29.3433 36.3834 28.7517 35.8706 28.1207 34.7269C27.7263 34.017 27.6671 33.2873 27.608 32.4591C27.5488 31.4731 27.4699 30.3293 26.7206 29.2053C25.4388 27.2333 23.2696 26.8389 21.1792 26.4445C19.6411 26.1684 18.2015 25.8923 17.1564 25.0444C16.8606 24.788 16.4267 24.3542 15.9534 23.8809C15.1646 23.0724 14.3167 22.2047 13.4687 21.5737C13.311 22.2836 13.1926 23.0132 13.1138 23.7626C13.6265 24.2161 14.1195 24.7486 14.5928 25.2218C15.1055 25.7543 15.559 26.2078 15.9534 26.5234C17.3733 27.6868 19.1284 28.0221 20.844 28.3376C22.6977 28.6728 24.295 28.9686 25.1232 30.2702C25.5965 30.9801 25.636 31.7492 25.6951 32.6168C25.7543 33.5437 25.8332 34.6086 26.4445 35.6932C27.2333 37.113 28.0023 37.8032 28.7517 38.454C29.2644 38.9075 29.7377 39.3414 30.2701 40.0316C30.3096 40.0907 34.1944 45.2573 31.6111 49.2408C31.3942 49.576 31.1773 49.7535 30.9603 49.7929C30.6054 49.8324 30.1321 49.4971 29.9743 49.3394C29.1658 48.5111 28.2982 44.7841 27.9432 42.4177V42.3782C27.1741 38.454 23.4865 36.8566 20.5088 35.5748L20.0158 35.3579C17.1366 34.0958 14.3364 32.5971 13.1138 30.1518C13.2518 31.4534 13.5082 32.7549 13.8237 33.9972C15.3618 35.2988 17.2944 36.265 19.2467 37.113L19.7397 37.3299C22.5596 38.5526 25.4782 39.8146 26.0501 42.7332C26.2078 43.8375 27.0952 49.1422 28.6137 50.7001C28.732 50.8184 29.6588 51.7255 30.9012 51.7255C30.9801 51.7255 31.0787 51.7255 31.1575 51.7058C31.7294 51.6466 32.5379 51.3508 33.2281 50.3057C34.6085 48.097 34.8057 45.4348 33.7606 42.5163ZM14.9083 37.2313C15.2238 38.0201 15.5985 38.8089 15.9929 39.5583C19.1481 40.702 22.4216 43.167 22.5005 47.6829C23.1315 48.2153 23.7823 48.7083 24.4528 49.1816C24.433 48.6886 24.4133 48.2153 24.4133 47.7223C24.3542 41.8852 19.8777 38.3948 14.9083 37.2313Z" fill="black"/>
<path d="M10.5502 74.8571C9.34727 71.8399 8.85427 70.775 6.29067 70.4792C9.30783 70.1243 10.7277 68.5467 10.7277 66.4564C10.7277 64.6224 9.42615 62.8279 4.77224 62.8279H0V63.1434C0.749359 63.3998 0.907119 64.0702 0.907119 65.707V75.8233C0.907119 77.4601 0.749359 78.1306 0 78.3869V78.7025H4.22008V78.3869C3.47072 78.1306 3.31296 77.4601 3.31296 75.8233V70.8342H4.65391C6.64563 70.8342 6.76395 71.6822 8.12463 74.9951C9.20923 77.6573 9.66279 78.8799 11.5559 78.8799C11.9503 78.8799 12.6602 78.8602 13.1927 78.7222V78.4067C13.0743 78.4264 12.956 78.4264 12.8574 78.4264C12.0095 78.4067 11.7531 77.8742 10.5502 74.8571ZM3.31296 70.1243V63.6364C3.6482 63.597 4.00316 63.5772 4.31868 63.5772C7.15835 63.5772 8.34155 65.1943 8.34155 67.0282C8.34155 68.7833 7.37527 70.144 4.77224 70.144H3.31296V70.1243Z" fill="black"/>
<path d="M79.1758 75.8233V71.4455C79.1758 68.6847 77.8743 67.2057 75.1332 67.2057C73.0626 67.2057 71.3273 68.2508 70.0455 69.8087L70.2821 70.0059C71.4456 68.6255 72.6879 68.0734 73.95 68.0734C75.6262 68.0734 76.8489 68.7044 76.908 70.9525L74.3839 71.6821C71.5639 72.4709 69.1975 73.6147 69.1975 75.9416C69.1975 77.8545 70.5976 78.9194 72.2738 78.9194C74.6402 78.9194 76.2573 76.9474 76.908 74.3049V77.7756C76.908 78.3672 77.2235 78.6827 77.8151 78.6827H80.0829V78.3672C79.3336 78.1306 79.1758 77.4601 79.1758 75.8233ZM76.908 72.0962C76.8883 74.1471 75.6459 77.2629 73.4176 77.2629C72.3724 77.2629 71.3075 76.6516 71.3075 75.1528C71.3075 73.2794 73.4176 72.6681 74.4825 72.3723L76.908 71.6624V72.0962Z" fill="black"/>
<path d="M19.7199 77.0854C16.8408 77.0854 15.0266 75.1528 15.0266 71.8399H23.6639C23.6639 69.296 22.0272 67.2057 18.9706 67.2057C16.0126 67.2057 13.0151 69.6115 13.0151 73.4569C13.0151 77.1248 15.8745 78.9194 18.3987 78.9194C21.0214 78.9194 22.816 77.1051 23.8611 75.5078L23.6639 75.2712C22.6779 76.3755 21.3961 77.0854 19.7199 77.0854ZM18.2606 68.0734C19.7594 68.0734 20.982 69.0002 21.337 71.13H15.1252C15.4407 69.0791 17.0183 68.0734 18.2606 68.0734Z" fill="black"/>
<path d="M63.6364 77.0854C60.7573 77.0854 58.9431 75.1528 58.9431 71.8399H67.5804C67.5804 69.296 65.9437 67.2057 62.8871 67.2057C59.9291 67.2057 56.9316 69.6115 56.9316 73.4569C56.9316 77.1248 59.791 78.9194 62.3152 78.9194C64.938 78.9194 66.7325 77.1051 67.7776 75.5078L67.5804 75.2712C66.6141 76.3755 65.3126 77.0854 63.6364 77.0854ZM62.1772 68.0734C63.6759 68.0734 64.8985 69.0002 65.2535 71.13H59.0417C59.3572 69.0791 60.9348 68.0734 62.1772 68.0734Z" fill="black"/>
<path d="M36.4425 75.8233V60.5403L36.2059 60.3628L33.2084 61.684V61.9995C33.7803 62.2559 34.1155 62.4728 34.1155 63.8138V67.7972C33.4253 67.462 32.6365 67.2253 31.69 67.2253C27.746 67.2253 25.3599 69.9861 25.3599 73.4569C25.3599 76.2768 27.3121 78.9193 30.1913 78.9587C31.8872 78.9982 33.2479 77.815 34.1155 76.829V77.7755C34.1155 78.3671 34.4311 78.6826 35.0227 78.6826H37.3299V78.3671C36.6002 78.1305 36.4425 77.46 36.4425 75.8233ZM34.1353 76.3754C33.4845 77.0853 32.6168 77.6178 31.6111 77.6178C28.3376 77.6178 27.5882 73.7921 27.5882 71.6229C27.5882 70.3017 28.3376 68.093 30.7434 68.093C32.3999 68.093 34.1155 69.8678 34.1155 71.3468V76.3754H34.1353Z" fill="black"/>
<path d="M50.0887 69.4735C48.2744 68.7439 45.9869 67.9353 45.9869 65.9042C45.9869 64.2083 47.8209 63.4392 49.221 63.4392C51.331 63.4392 53.4411 64.5435 54.2693 66.6535L54.5257 66.5549L54.4271 63.5969C53.2439 63.0053 51.7451 62.6504 50.0689 62.6504C46.4996 62.6504 44.2318 64.4055 44.2318 67.2057C44.2318 69.8285 46.1841 70.6173 48.5111 71.5835C50.3253 72.3132 53.2439 73.3583 53.2439 75.567C53.2439 77.2629 51.4888 78.032 50.2267 78.032C47.6631 78.032 45.2573 76.5924 44.2318 73.8513L43.936 73.8908L44.0346 77.3023C45.1981 78.17 47.3081 78.9194 49.6351 78.9194C52.2381 78.9194 55.0975 77.2037 55.0975 74.088C55.1567 71.3863 52.3959 70.3609 50.0887 69.4735Z" fill="black"/>
<path d="M59.8108 99.0535V96.2335C59.2981 98.3633 57.9768 99.9803 56.064 99.9803C54.7033 99.9803 53.5596 99.1126 53.5596 97.5745C53.5596 95.6814 55.4921 94.7545 57.7796 94.1038L59.8305 93.5122C59.7911 91.6979 58.8051 91.1655 57.4444 91.1655C56.419 91.1655 55.3935 91.5993 54.4667 92.7234L54.2892 92.5656C55.3146 91.3035 56.7345 90.4556 58.4107 90.4556C60.639 90.4556 61.6842 91.6585 61.6842 93.9066V97.4562C61.6842 98.7774 61.8222 99.3295 62.4138 99.5267V99.7831H60.5799C60.0672 99.7831 59.8108 99.5268 59.8108 99.0535ZM56.9711 98.6196C58.7656 98.6196 59.7911 96.0758 59.8108 94.4193V94.084L57.8388 94.6559C56.9711 94.8926 55.2555 95.3856 55.2555 96.904C55.2555 98.1266 56.1232 98.6196 56.9711 98.6196Z" fill="black"/>
<path d="M26.7995 99.5464C27.4108 99.3492 27.5291 98.7971 27.5291 97.4561V87.675C27.5291 86.5904 27.2531 86.3932 26.7995 86.196V85.9396L29.2251 84.8748L29.4025 85.0128V97.4364C29.4025 98.7576 29.5406 99.3098 30.1322 99.5267V99.7831H26.7798V99.5464H26.7995Z" fill="black"/>
<path d="M63.735 99.5464C64.3464 99.3492 64.4647 98.7971 64.4647 97.4561V87.675C64.4647 86.5904 64.1886 86.3932 63.735 86.196V85.9396L66.1606 84.8748L66.3381 85.0128V97.4364C66.3381 98.7576 66.4761 99.3098 67.0677 99.5267V99.7831H63.7153V99.5464H63.735Z" fill="black"/>
<path d="M22.2835 94.0248V94.2811C23.0723 94.4981 23.2497 95.0108 23.2497 96.4503V98.1265C22.8356 98.9351 21.7313 99.3295 20.5678 99.3295C19.3846 99.3295 18.0042 98.8365 17.0774 97.9293C15.6773 96.4503 14.9279 94.1628 14.9476 92.0528C14.9871 89.0751 16.7224 87.2806 19.2663 87.2806C21.1397 87.2806 23.1117 88.4046 23.8019 90.1202L24.0188 90.0611L23.9399 87.6355C22.9737 86.9847 21.0806 86.7284 19.9368 86.7284C15.7956 86.7284 12.9954 89.7258 12.9954 93.2557C12.9954 97.2983 15.697 99.9605 19.9565 99.9605C21.4947 99.9605 23.7625 99.2111 25.1429 97.3969V94.0051H22.2835V94.0248Z" fill="black"/>
<path d="M36.3243 90.4556C33.8001 90.4556 31.3943 92.4473 31.3943 95.4447C31.3943 98.5802 33.9184 100 36.3243 100C38.4935 100 41.2346 98.2055 41.2346 95.0503C41.2148 91.7965 38.6118 90.4556 36.3243 90.4556ZM36.9553 99.3887C35.6735 99.3887 34.6481 98.4619 34.1748 97.6139C33.6029 96.6082 33.2282 95.1884 33.2282 94.0446C33.2282 92.822 33.7607 91.3824 35.0622 91.0669C36.3834 90.7316 37.7244 91.7571 38.3554 92.8614C38.9668 93.9263 39.3414 95.3067 39.3414 96.4504C39.3612 97.3181 38.947 99.3887 36.9553 99.3887Z" fill="black"/>
<path d="M47.9392 90.4556C46.894 90.4556 45.7897 90.9486 44.8826 91.5402V85.0326L44.7051 84.8945L42.2795 85.9594V86.2158C42.7331 86.413 43.0092 86.6102 43.0092 87.6948V99.8028H43.2064L43.9557 98.5999C44.6459 99.369 45.8094 99.9606 47.1504 99.9606C50.207 99.9606 52.1395 97.7125 52.1395 94.8926C52.1395 92.605 50.5619 90.4556 47.9392 90.4556ZM47.8603 99.5859C46.4602 99.5859 44.8629 98.0083 44.8629 96.5688V92.0134C45.5136 91.5993 46.2235 91.4021 46.7954 91.4021C49.5168 91.4021 50.3253 95.0503 50.3253 96.3124C50.345 97.9689 49.8126 99.5859 47.8603 99.5859Z" fill="black"/>
</svg>
