<svg width="100" height="77" viewBox="0 0 100 77" fill="none" xmlns="http://www.w3.org/2000/svg">
<path d="M66.4784 53.6788C60.004 53.6788 54.7556 58.8729 54.7556 65.2813C54.7556 71.6886 60.004 76.8819 66.4784 76.8819C68.9426 76.8819 71.2247 76.1288 73.1125 74.8442L75.0262 76.756L77.6994 74.0829L75.8581 72.2417C77.3308 70.3025 78.2011 67.8933 78.2011 65.2813C78.2011 58.8729 72.954 53.6788 66.4784 53.6788ZM0 54.3791V67.3477C0 72.3861 3.77814 76.6893 9.63345 76.6893C15.4899 76.6893 19.2669 72.3861 19.2669 67.3477V54.3791H15.1609V66.4796C15.1609 70.4751 12.8046 72.8714 9.63345 72.8714C6.49762 72.8714 4.10784 70.4751 4.10784 66.4796V54.3791H0ZM23.8633 54.3791V76.1817H27.9273V62.612L39.8237 76.2199H42.0713V54.3791H38.0073V68.004L26.0823 54.3791H23.8633ZM46.931 54.3791V76.1817H51.1495V54.3791H46.931ZM87.8765 54.3791L78.3404 76.1817H82.7174L84.4326 72.0757H93.8352L95.4991 76.1817H100L90.7043 54.3791H87.8765ZM66.4784 57.3192C70.6827 57.3192 74.0913 60.8841 74.0913 65.2813C74.0913 66.7846 73.693 68.1883 73.0019 69.3874L70.4776 66.8669L67.8045 69.54L70.3821 72.1158C69.2404 72.8302 67.9059 73.2415 66.4784 73.2415C62.2741 73.2415 58.8655 69.6773 58.8655 65.2813C58.8655 60.8841 62.2741 57.3192 66.4784 57.3192ZM89.2083 60.6487L92.3852 68.4887H85.9323L89.2083 60.6487Z" fill="black"/>
<path d="M42.0578 0.00109639C39.1261 0.0304032 36.751 0.655127 35.3665 1.23364C30.0595 3.45246 26.8373 6.66156 24.676 10.3616C22.1764 14.644 21.6669 19.12 21.9991 22.6796C22.087 23.538 22.1415 24.1541 22.2624 24.7574C23.0867 29.9557 26.3489 34.7285 30.8121 38.161C34.5317 41.0222 39.0358 43.2628 43.8189 43.2725C45.4833 43.2725 47.2978 43.0698 49.1441 42.6143L49.7013 42.454C47.0332 41.581 44.4407 40.3356 41.9472 38.5198C41.8573 38.4553 41.7673 38.3891 41.6781 38.3232C40.6146 38.4735 38.2704 38.5628 36.1641 38.161C32.5214 37.4674 30.1146 35.8426 30.0889 35.8047C29.1194 34.4028 26.5329 30.2455 26.6049 24.4769C26.6909 17.8389 29.8269 13.2516 30.1481 12.7656C31.6086 10.5566 33.4924 8.63704 35.6356 7.11797C38.9961 4.70133 43.0324 3.25132 47.2514 3.33436C47.6373 3.34413 48.0249 3.36073 48.4095 3.39395C56.9451 4.13766 61.9315 10.6177 61.9315 10.6177C58.6809 5.90906 53.6255 2.3221 47.841 0.728492C45.7767 0.180357 43.8168 -0.0166831 42.0578 0.00109639ZM42.4032 5.27486C39.9145 5.9538 38.4423 6.65111 36.3835 8.16158C35.1452 9.06892 33.4643 10.478 32.1992 12.1742C29.144 19.6388 33.3665 26.7717 35.2959 29.7048C37.0165 32.3229 39.3422 35.0378 42.7027 37.4838C49.7474 42.6125 57.6775 43.0097 66.1997 43.4615C71.4579 43.7399 82.7726 43.6961 82.7726 43.6961L79.4374 37.3483L77.9892 37.3385C76.6289 37.3385 68.8422 37.2984 65.0397 37.0923C60.3444 36.8408 56.7051 36.5435 54.3435 35.9342C49.3014 34.6349 44.4025 32.1026 40.5047 26.1729C38.9734 23.843 37.4473 20.0777 37.2897 16.8638C36.9527 10.0218 40.1893 6.4657 42.4032 5.27271V5.27486ZM55.8717 7.04929C58.8208 10.1081 61.2568 16.6291 59.1516 23.708C57.6972 28.5998 54.7033 32.1582 52.487 34.0436C53.2062 34.2927 53.9318 34.5062 54.662 34.6942C56.1127 35.0679 58.1162 35.3235 60.6513 35.5261C62.5538 32.9508 65.8049 27.1269 65.4117 21.8248C65.1601 17.5203 63.0678 11.6676 55.8717 7.04929ZM13.1364 38.2832L10.3374 43.2687H37.1734C34.5651 42.2809 32.1533 40.8107 30.0298 39.178C29.6549 38.8898 29.2879 38.5897 28.9289 38.2832H13.1364Z" fill="black"/>
</svg>
